<?xml version="1.0" standalone="no"?>
<!DOCTYPE svg PUBLIC "-//W3C//DTD SVG 20010904//EN"
 "http://www.w3.org/TR/2001/REC-SVG-20010904/DTD/svg10.dtd">
<svg version="1.0" xmlns="http://www.w3.org/2000/svg"
 width="500.000000pt" height="500.000000pt" viewBox="0 0 500.000000 500.000000"
 preserveAspectRatio="xMidYMid meet">
<metadata>
Created by potrace 1.14, written by Peter Selinger 2001-2017
</metadata>
<g transform="translate(0.000000,500.000000) scale(0.100000,-0.100000)"
fill="#000000" stroke="none">
<path d="M3080 4685 c-14 -2 -90 -9 -170 -15 -288 -23 -611 -72 -820 -125
-588 -149 -1093 -494 -1388 -949 -174 -268 -320 -624 -396 -966 -54 -246 -70
-401 -70 -710 -1 -252 2 -302 22 -429 65 -401 215 -739 460 -1031 107 -128
318 -317 473 -423 l55 -38 145 3 144 3 -55 29 c-312 164 -654 476 -812 741
-221 370 -319 816 -288 1302 30 465 128 838 322 1228 193 387 526 715 934 919
301 150 646 236 1184 293 121 13 244 18 465 18 336 -1 492 -16 810 -80 350
-70 600 -155 828 -281 l77 -43 0 85 0 84 -107 54 c-297 148 -721 258 -1203
311 -127 14 -555 28 -610 20z"/>
<path d="M2022 3714 c-34 -24 -28 -58 16 -90 20 -16 43 -35 50 -43 16 -20 16
-122 -2 -146 -7 -10 -44 -35 -82 -54 -58 -30 -70 -41 -72 -64 -7 -61 36 -72
121 -32 70 34 126 81 143 121 16 39 18 134 4 186 -14 48 -53 94 -101 118 -46
24 -49 24 -77 4z"/>
<path d="M2791 3685 c-64 -30 -131 -81 -131 -100 0 -25 19 -26 91 -4 116 35
228 10 282 -63 26 -34 34 -126 17 -188 -15 -57 -80 -120 -152 -147 -29 -11
-53 -24 -55 -30 -2 -6 26 -29 62 -53 78 -51 96 -81 103 -171 10 -138 -41 -222
-154 -255 -68 -20 -115 -10 -216 43 -37 19 -74 33 -83 29 -44 -16 6 -76 121
-146 54 -32 64 -35 139 -35 91 1 142 21 208 84 50 47 73 92 87 172 22 118 -4
244 -58 289 -32 26 -33 28 -13 35 31 9 96 89 109 133 33 110 23 235 -25 304
-33 49 -104 93 -178 113 -78 20 -91 19 -154 -10z"/>
<path d="M1723 2678 c-28 -36 -24 -51 25 -97 58 -54 68 -71 77 -132 9 -62 -12
-110 -67 -149 -24 -17 -51 -37 -60 -45 -26 -21 -23 -62 6 -81 23 -14 28 -14
61 2 51 24 135 103 151 141 17 39 18 153 3 208 -27 98 -159 201 -196 153z"/>
<path d="M3561 1792 c-15 -27 0 -44 122 -134 223 -167 277 -197 472 -265 55
-19 118 -46 141 -59 77 -45 135 -161 138 -272 1 -58 -1 -66 -27 -88 -78 -67
-356 -77 -712 -24 -227 33 -375 89 -566 211 -75 49 -99 54 -99 24 0 -37 282
-246 384 -284 144 -53 398 -86 671 -86 235 1 313 14 374 63 64 51 76 76 79
162 5 93 -14 167 -64 256 -57 103 -107 136 -324 214 -128 45 -271 119 -441
226 -64 41 -122 74 -128 74 -5 0 -15 -8 -20 -18z"/>
</g>
</svg>
